<svg t="1619521989395" class="icon" viewBox="0 0 1024 1024" version="1.1" xmlns="http://www.w3.org/2000/svg" p-id="795" width="16" height="16"><path d="M248.350118 993.882353a22.407529 22.407529 0 0 1-22.106353-26.081882l52.224-303.585883L57.223529 449.355294a22.287059 22.287059 0 0 1 12.468706-38.068706l305.814589-44.333176 136.734117-276.118588a22.407529 22.407529 0 0 1 40.237177 0l136.734117 276.118588 305.874824 44.333176a22.407529 22.407529 0 0 1 12.40847 38.068706l-221.30447 214.979765 52.224 303.525647a22.467765 22.467765 0 0 1-32.527059 23.491765l-273.528471-143.299765-273.52847 143.36a22.467765 22.467765 0 0 1-10.420706 2.529882zM120.952471 450.198588l197.270588 192.210824a22.407529 22.407529 0 0 1 6.445176 19.877647L278.106353 933.647059l243.772235-128.120471a22.407529 22.407529 0 0 1 20.841412 0l243.772235 128.120471-46.561882-271.420235a22.407529 22.407529 0 0 1 6.445176-19.877648l197.270589-192.210823-272.564706-39.634824a22.407529 22.407529 0 0 1-16.865883-12.227764l-121.916235-246.964706-121.916235 246.964706a22.407529 22.407529 0 0 1-16.865883 12.227764l-272.564705 39.634824z" p-id="796"></path></svg>