<svg t="1619607926352" class="icon" viewBox="0 0 1024 1024" version="1.1" xmlns="http://www.w3.org/2000/svg" p-id="16688" width="12" height="12"><path d="M968.533333 496.64h-15.36a441.173333 441.173333 0 0 1-426.666666-426.666667V54.613333 38.4h-30.72v31.573333a441.173333 441.173333 0 0 1-426.666667 426.666667H39.253333v30.72h31.573334a441.173333 441.173333 0 0 1 426.666666 426.666667v31.573333h32.426667v-16.213333-15.36a441.173333 441.173333 0 0 1 426.666667-426.666667h31.573333v-30.72h-16.213333zM512 847.36A475.306667 475.306667 0 0 0 176.64 512 475.306667 475.306667 0 0 0 512 176.64 475.306667 475.306667 0 0 0 847.36 512 475.306667 475.306667 0 0 0 512 847.36z" p-id="16689"></path></svg>