<svg t="1619514310960" class="icon" viewBox="0 0 1025 1024" version="1.1" xmlns="http://www.w3.org/2000/svg" p-id="4296" data-spm-anchor-id="a313x.7781069.0.i8" width="32" height="32"><path d="M988.392934 1024 34.16457 1024C22.295479 1024 12.800207 1019.252364 5.678752 1007.406545-1.442702 995.560727-1.442702 983.691636 3.328207 971.845818L482.792934 18.967273C487.54057 7.098182 499.409661 0 513.65257 0 525.521661 0 537.390752 7.098182 542.138389 18.967273L1016.878752 967.098182C1021.626389 974.219636 1024.000207 981.341091 1024.000207 988.439273 1024.000207 1007.406545 1007.383479 1024 988.392934 1024ZM511.278752 116.154182 93.510025 952.878545 931.421298 952.878545 511.278752 116.154182ZM513.65257 796.439273C541.184207 796.439273 563.502752 818.734545 563.502752 846.219636 563.502752 873.704727 541.184207 896 513.65257 896 486.120934 896 463.802389 873.704727 463.802389 846.219636 463.802389 818.734545 486.120934 796.439273 513.65257 796.439273ZM513.65257 704C487.54057 704 466.176207 687.406545 466.176207 668.439273L466.176207 407.691636C466.176207 388.747636 487.54057 372.154182 513.65257 372.154182 539.76457 372.154182 561.128934 388.747636 561.128934 407.691636L561.128934 668.439273C561.128934 687.406545 539.76457 704 513.65257 704Z" p-id="4297" fill="#1296db" data-spm-anchor-id="a313x.7781069.0.i13" class="selected"></path></svg>